<svg width="95" height="78" viewBox="0 0 95 78" fill="none" xmlns="http://www.w3.org/2000/svg">
<path d="M74.0122 45.6793C73.8117 44.7067 73.3258 43.7883 72.5582 43.0465C71.7868 42.3099 70.8448 41.8657 69.8682 41.7022L54.1673 38.3397L58.7098 41.6765L51.5386 66.5555L47.5006 48.0755L43.4607 66.5561L36.2928 41.677L40.8334 38.3402L25.1325 41.7027C24.1559 41.8662 23.2144 42.3099 22.4421 43.047C21.6745 43.7888 21.1881 44.7072 20.9886 45.6798L16.3335 68.3099L25.115 71.6823C28.0301 75.0364 36.1907 77.5036 45.9782 77.7386H49.0221C58.8096 77.5042 66.9692 75.0364 69.8853 71.6823L78.6673 68.3099L74.0122 45.6793Z" fill="#808F99"/>
<path d="M47.5007 40.8664L43.8816 42.3005L47.5007 48.0755L51.1207 42.3005L47.5007 40.8664ZM60.9382 18.5817C60.9382 8.31074 57.1191 0.261475 47.5007 0.261475C37.8813 0.261475 34.0642 8.31127 34.0642 18.5817C33.0581 19.1626 32.3974 20.5258 33.3854 23.4472C33.8837 24.914 34.762 26.1431 35.5073 26.7866C38.2485 34.3401 43.6394 40.1714 47.5007 40.1714C51.362 40.1714 56.7534 34.3401 59.4932 26.7866C60.2394 26.1431 61.1163 24.9135 61.616 23.4472C62.604 20.5253 61.9438 19.1626 60.9382 18.5817ZM15.1793 63.1484C10.6972 62.5622 7.16406 61.2216 5.69391 59.5309L0 57.344L3.0182 42.6717C3.14787 42.0414 3.46375 41.4452 3.96108 40.9652C4.45655 40.4984 5.06124 40.1962 5.70531 40.0936L16.7326 37.2983C15.0734 35.728 13.4627 33.2655 12.4324 30.4219C11.9488 30.0056 11.3793 29.2086 11.0558 28.257C10.4145 26.3639 10.843 25.4802 11.4956 25.1027C11.4956 18.444 13.9695 13.2252 20.2068 13.2252H20.2082C26.4441 13.2252 28.9194 18.444 28.9194 25.1027C29.572 25.4802 30.0005 26.3639 29.3602 28.257C29.0362 29.2086 28.4667 30.0056 27.9831 30.4219C26.9529 33.265 25.3416 35.7275 23.6829 37.2983L28.5589 38.5348L24.7631 39.347C23.3618 39.5889 22.0712 40.2434 21.0224 41.2459C19.9322 42.3 19.1912 43.649 18.882 45.1483L15.1793 63.1484ZM91.9832 42.6712C91.8526 42.0408 91.5377 41.4447 91.0403 40.9647C90.5406 40.4873 89.9302 40.1982 89.2961 40.093L78.2693 37.2978C79.9285 35.7275 81.5388 33.265 82.5705 30.4214C83.0545 30.005 83.6226 29.208 83.9461 28.2565C84.5874 26.3634 84.1589 25.4796 83.5067 25.1022C83.5067 18.4434 81.03 13.2246 74.7937 13.2246C68.5568 13.2246 66.0816 18.4434 66.0816 25.1022C65.4299 25.4796 65.0009 26.3634 65.6422 28.2565C65.9647 29.208 66.5342 30.005 67.0178 30.4214C68.049 33.2645 69.6598 35.727 71.319 37.2978L66.4421 38.5343L70.2379 39.3465C71.6382 39.5884 72.9297 40.2429 73.9695 41.2359C75.0687 42.2989 75.8083 43.6485 76.1175 45.1457L79.8207 63.1484C84.3028 62.5622 87.8359 61.2216 89.3066 59.5309L95 57.344L91.9832 42.6712Z" fill="#808F99"/>
</svg>
