<svg width="92" height="83" viewBox="0 0 92 83" fill="none" xmlns="http://www.w3.org/2000/svg">
<path d="M22.6401 32.9418C20.9824 31.2079 18.2947 31.2079 16.6369 32.9418C14.9792 34.6757 14.9792 37.4869 16.6369 39.2208L30.6442 53.872C32.302 55.6059 34.9897 55.6059 36.6474 53.872C38.3051 52.1381 38.3051 49.3268 36.6474 47.5929L22.6401 32.9418Z" fill="#808F99"/>
<path d="M50.6528 3.63952C48.995 1.9056 46.3074 1.9056 44.6496 3.63952C42.9919 5.37344 42.9919 8.18467 44.6496 9.91859L58.6569 24.5697C60.3147 26.3037 63.0024 26.3037 64.6601 24.5697C66.3178 22.8358 66.3178 20.0246 64.6601 18.2907L50.6528 3.63952Z" fill="#808F99"/>
<path d="M43.6488 8.87312L21.6373 31.8964L37.6457 48.6405L59.6572 25.6173L43.6488 8.87312Z" fill="#808F99"/>
<path d="M88.3291 78.6285C87.5331 79.4608 86.4536 79.9284 85.328 79.9284C84.2024 79.9284 83.1229 79.4608 82.3269 78.6285L45.6514 40.2671L51.6536 33.989L88.3291 72.3504C89.1249 73.183 89.572 74.3121 89.572 75.4894C89.572 76.6667 89.1249 77.7959 88.3291 78.6285ZM4.30366 72.1402H41.0924C41.8429 72.1402 42.5627 72.4521 43.0934 73.0072C43.6242 73.5623 43.9223 74.3151 43.9223 75.1002V81.0201H1.47375V75.1002C1.47375 74.3151 1.7719 73.5623 2.30261 73.0072C2.83332 72.4521 3.55312 72.1402 4.30366 72.1402ZM7.13356 63.2603H38.2625C39.013 63.2603 39.7328 63.5721 40.2635 64.1272C40.7942 64.6823 41.0924 65.4352 41.0924 66.2202V72.1402H4.30366V66.2202C4.30366 65.4352 4.60181 64.6823 5.13252 64.1272C5.66323 63.5721 6.38302 63.2603 7.13356 63.2603Z" fill="#808F99"/>
<path d="M89.3313 71.3053L53.6547 33.9888L60.2145 27.1276C61.1681 27.4118 62.1775 27.4213 63.1358 27.1551C64.0942 26.8889 64.9661 26.3568 65.6592 25.615C66.7202 24.5049 67.3163 22.9994 67.3163 21.4296C67.3163 19.8598 66.7202 18.3544 65.6592 17.2442L51.654 2.58046C50.781 1.64231 49.634 1.03525 48.3943 0.855243C47.1546 0.67524 45.8929 0.932563 44.8086 1.58653C43.7244 2.2405 42.8794 3.25381 42.4074 4.46627C41.9353 5.67873 41.8631 7.02118 42.2021 8.28138L21.0514 30.4043C20.1028 30.1479 19.1073 30.1493 18.1594 30.4083C17.2115 30.6673 16.3425 31.1754 15.635 31.8843C15.1092 32.434 14.6921 33.0867 14.4075 33.8051C14.1229 34.5235 13.9765 35.2935 13.9765 36.0712C13.9765 36.8488 14.1229 37.6188 14.4075 38.3372C14.6921 39.0556 15.1092 39.7083 15.635 40.258L29.643 54.907C30.5195 55.8316 31.6638 56.4269 32.8976 56.6001C34.1313 56.7734 35.3852 56.5148 36.4638 55.8647C37.5424 55.2146 38.3851 54.2096 38.8605 53.0062C39.3359 51.8029 39.4173 50.4688 39.0921 49.212L45.6518 42.3507L81.3284 79.6761C81.8505 80.2415 82.475 80.6925 83.1655 81.0028C83.856 81.313 84.5987 81.4763 85.3502 81.4832C86.1017 81.49 86.847 81.3402 87.5426 81.0425C88.2381 80.7449 88.8701 80.3053 89.4015 79.7495C89.9329 79.1936 90.3532 78.5327 90.6377 77.8051C90.9223 77.0776 91.0655 76.298 91.059 75.512C91.0525 74.7259 90.8963 73.9491 90.5997 73.2269C90.3031 72.5046 89.8719 71.8514 89.3313 71.3053ZM45.6518 4.685C45.9146 4.40979 46.2267 4.19147 46.5702 4.04251C46.9138 3.89355 47.282 3.81688 47.6539 3.81688C48.0258 3.81688 48.3941 3.89355 48.7376 4.04251C49.0812 4.19147 49.3933 4.40979 49.6561 4.685L63.6613 19.3369C64.1768 19.8952 64.462 20.6429 64.4556 21.419C64.4491 22.1951 64.1515 22.9375 63.6268 23.4863C63.1021 24.0351 62.3923 24.3464 61.6503 24.3531C60.9084 24.3598 60.1935 24.0615 59.6598 23.5223L45.6518 8.87041C45.1213 8.31534 44.8232 7.56259 44.8232 6.77771C44.8232 5.99283 45.1213 5.24008 45.6518 4.685ZM35.6452 52.8261C35.1059 53.3636 34.3895 53.6634 33.6445 53.6634C32.8995 53.6634 32.1831 53.3636 31.6438 52.8261L17.6357 38.1772C17.3728 37.9024 17.1642 37.5761 17.0218 37.2169C16.8795 36.8578 16.8061 36.4728 16.806 36.084C16.8059 35.6952 16.8789 35.3102 17.0211 34.951C17.1632 34.5917 17.3716 34.2653 17.6343 33.9903C17.8971 33.7153 18.209 33.4971 18.5524 33.3482C18.8957 33.1993 19.2638 33.1225 19.6355 33.1224C20.0072 33.1223 20.3753 33.1987 20.7187 33.3474C21.0622 33.496 21.3743 33.714 21.6372 33.9888L35.6452 48.6407C36.1758 49.1958 36.4738 49.9485 36.4738 50.7334C36.4738 51.5183 36.1758 52.271 35.6452 52.8261ZM37.6488 46.548L23.6408 31.8843L43.6397 10.9661L57.6477 25.618L37.6488 46.548ZM87.3306 77.5834C86.7999 78.1383 86.0802 78.45 85.3298 78.45C84.5795 78.45 83.8598 78.1383 83.3291 77.5834L47.6525 40.2669L51.6568 36.0785L87.3306 73.398C87.8611 73.953 88.1591 74.7058 88.1591 75.4907C88.1591 76.2756 87.8611 77.0283 87.3306 77.5834ZM42.5078 70.9323V66.22C42.5078 65.0425 42.0605 63.9132 41.2645 63.0805C40.4684 62.2478 39.3887 61.7801 38.2629 61.7801H7.13396C6.00816 61.7801 4.92846 62.2478 4.1324 63.0805C3.33633 63.9132 2.88911 65.0425 2.88911 66.22V70.9323C2.06432 71.2373 1.34977 71.8014 0.843211 72.5474C0.336653 73.2934 0.0628306 74.1849 0.0592041 75.1L0.0592041 81.0199C0.0592041 81.4124 0.208279 81.7889 0.473634 82.0664C0.738989 82.344 1.09889 82.4999 1.47416 82.4999H43.9227C44.298 82.4999 44.6579 82.344 44.9232 82.0664C45.1886 81.7889 45.3377 81.4124 45.3377 81.0199V75.1C45.334 74.1849 45.0602 73.2934 44.5536 72.5474C44.0471 71.8014 43.3325 71.2373 42.5078 70.9323ZM5.71901 66.22C5.71901 65.8275 5.86809 65.4511 6.13344 65.1735C6.3988 64.896 6.75869 64.74 7.13396 64.74H38.2629C38.6382 64.74 38.9981 64.896 39.2634 65.1735C39.5288 65.4511 39.6778 65.8275 39.6778 66.22V70.66H5.71901V66.22ZM42.5078 79.5399H2.88911V75.1C2.88911 74.7074 3.03818 74.331 3.30354 74.0535C3.56889 73.7759 3.92879 73.62 4.30406 73.62H41.0928C41.4681 73.62 41.828 73.7759 42.0933 74.0535C42.3587 74.331 42.5078 74.7074 42.5078 75.1V79.5399Z" fill="#DDE2E5"/>
</svg>
