<svg width="45" height="32" viewBox="0 0 45 32" fill="none" xmlns="http://www.w3.org/2000/svg">
<path d="M33.4301 10.0684C33.5013 10.1517 33.5862 10.2179 33.6799 10.2633C33.7737 10.3087 33.8743 10.3323 33.9761 10.3328C34.1789 10.3295 34.3724 10.2345 34.5144 10.0684L34.6067 9.96272L35.5602 11.0641L36.6445 12.3064L37.6981 13.5135L37.6135 13.6105C37.5414 13.6924 37.4842 13.7898 37.4452 13.8972C37.4061 14.0046 37.386 14.1197 37.386 14.236C37.386 14.3524 37.4061 14.4675 37.4452 14.5749C37.4842 14.6823 37.5414 14.7797 37.6135 14.8616L39.7359 17.2934C39.88 17.4576 40.0749 17.5497 40.2781 17.5497C40.4813 17.5497 40.6762 17.4576 40.8202 17.2934L44.4423 13.1523C44.5144 13.0704 44.5716 12.9729 44.6106 12.8656C44.6496 12.7582 44.6698 12.643 44.6698 12.5267C44.6698 12.4104 44.6496 12.2952 44.6106 12.1879C44.5716 12.0805 44.5144 11.983 44.4423 11.9011L42.3198 9.4693C42.2483 9.38672 42.1633 9.32117 42.0696 9.27644C41.9759 9.2317 41.8753 9.20867 41.7738 9.20867C41.6723 9.20867 41.5718 9.2317 41.4781 9.27644C41.3844 9.32117 41.2993 9.38672 41.2278 9.4693L41.1432 9.57503L38.0672 6.05064L38.1595 5.95372C38.2316 5.87181 38.2888 5.77436 38.3278 5.66699C38.3668 5.55962 38.3869 5.44446 38.3869 5.32814C38.3869 5.21183 38.3668 5.09666 38.3278 4.98929C38.2888 4.88192 38.2316 4.78447 38.1595 4.70256L36.0139 2.2443C35.9421 2.16264 35.8569 2.09803 35.7632 2.05419C35.6695 2.01034 35.5692 1.98811 35.4679 1.98878C35.2643 1.99203 35.0693 2.0833 34.9219 2.2443L31.3076 6.39427C31.1644 6.55936 31.084 6.78267 31.084 7.01544C31.084 7.24822 31.1644 7.47153 31.3076 7.63662L33.4301 10.0684Z" fill="#3498DB"/>
<path d="M25.7158 23.2233C25.3407 22.9895 24.9201 22.8683 24.4931 22.8709C23.9759 22.8709 23.4704 23.0466 23.0404 23.3758C22.6105 23.7049 22.3631 24.1545 22.1063 24.5617C21.8784 25.0589 21.1947 26.1152 20.9668 26.5505C21.0677 27.1316 22.2786 27.566 22.6442 27.9849C23.0099 28.4039 23.4758 28.6892 23.983 28.8048C24.4901 28.9204 25.0159 28.8611 25.4936 28.6343C25.9714 28.4076 26.3797 28.0236 26.667 27.531C26.9543 27.0383 27.1077 26.4591 27.1077 25.8666C27.111 25.3772 27.0051 24.895 26.8001 24.4657C26.5567 23.9354 26.1786 23.5022 25.7158 23.2233Z" fill="#3498DB"/>
<path d="M22.1398 0.299849C22.4781 0.124455 22.8448 0.0236438 23.2189 0.00283167C23.3157 -0.00256023 23.4127 0.00047443 23.5095 0.00586633H40.5452C41.0747 0.00543242 41.5939 0.165857 42.0444 0.46941C42.4949 0.772964 42.859 1.20753 43.0957 1.72424C43.3324 2.24095 43.4323 2.81957 43.3844 3.39482C43.3364 3.97007 43.1424 4.51914 42.8242 4.98081L39.5642 8.93376L33.0283 7.17946H23.5095C22.7539 7.22149 22.014 6.93439 21.4525 6.38134C20.8911 5.82829 20.554 4.09266 20.5154 3.2685C20.4769 2.44435 20.7401 1.63762 21.2471 1.02513C21.4981 0.721859 21.8015 0.475243 22.1398 0.299849Z" fill="#3498DB"/>
<path d="M20.6866 27.6949C20.7328 27.1215 20.7396 27.0476 20.9675 26.5504L30.7493 23.7872H40.5537C41.3093 23.7872 42.0339 24.1144 42.5681 24.6972C43.1024 25.28 43.4025 27.1431 43.4025 27.9672C43.4025 28.7914 43.1024 29.5815 42.5681 30.1643C42.0339 30.7471 41.3093 31.0747 40.5537 31.0747H23.518L23.5113 31.0747C22.9881 31.0734 22.7112 31.0727 22.0249 30.6093C21.5763 30.3063 21.2137 29.8736 20.9773 29.359C20.741 28.8444 20.6866 27.6949 20.6866 27.6949Z" fill="#3498DB"/>
<path fill-rule="evenodd" clip-rule="evenodd" d="M2.81472 0.447772C2.44172 0.45465 2.07362 0.541616 1.73143 0.703703C1.38925 0.865789 1.07969 1.09982 0.820438 1.39243C0.561185 1.68504 0.357316 2.03049 0.220476 2.40906C0.0836369 2.78763 0.016507 3.19189 0.0229213 3.59877V28.0205C-0.0509108 28.6507 0.054611 29.2903 0.325192 29.8528C0.595772 30.4153 1.01833 30.8735 1.53562 31.1653C1.61899 31.2145 1.70456 31.2591 1.79201 31.2989C1.79391 31.2989 1.79581 31.2989 1.79771 31.2989C1.88545 31.3359 1.97483 31.368 2.06549 31.3953C2.12016 31.4116 2.17526 31.4261 2.23072 31.4388C2.28453 31.4519 2.33868 31.4633 2.3931 31.473C2.48743 31.4906 2.58251 31.5031 2.67798 31.5102C2.78509 31.519 2.89257 31.521 2.99989 31.5165H8.56355C8.74026 31.5178 8.9167 31.5012 9.09058 31.4667C16.6712 30.9571 22.8074 24.276 22.8074 16.0225C22.8074 7.79078 16.7111 1.13763 9.1618 0.587609C8.97969 0.549327 8.79459 0.530592 8.60913 0.531674H3.50697C3.28025 0.472832 3.04776 0.444653 2.81472 0.447772ZM7.06497 8.45245L8.16187 8.45245C13.2327 8.45245 15.4973 10.8796 15.4973 16.0194C15.4973 21.1592 13.2298 23.8656 8.16187 23.8656L7.06497 23.8656V8.45245Z" fill="#3498DB"/>
<rect x="34.2051" y="11.4153" width="1.99851" height="13.0819" transform="rotate(41.0796 34.2051 11.4153)" fill="#3498DB"/>
</svg>
