<svg width="26" height="28" viewBox="0 0 26 28" fill="none" xmlns="http://www.w3.org/2000/svg">
<path d="M26.0001 14.1217C26.0001 12.4596 24.5379 11.2974 22.8757 11.2974H15.829C14.4133 11.2974 13.2656 12.445 13.2656 13.8608C13.2656 15.2765 14.4133 16.4242 15.829 16.4242H16.7102C18.7694 16.4242 20.327 18.3298 18.9764 19.8842C18.6738 20.2324 18.3243 20.5636 17.9237 20.8624C17.8859 20.8906 17.8604 20.9327 17.8536 20.9793C17.8448 21.0405 17.8689 21.1018 17.917 21.1406L21.6942 24.188C21.7484 24.2318 21.8141 24.2589 21.8834 24.2661C21.9891 24.2771 22.0945 24.2412 22.17 24.1664C24.6017 21.7594 26.0001 18.26 26.0001 14.1217Z" fill="#4285F4"/>
<path d="M13.2662 27.63C15.5965 27.63 17.6835 27.1101 19.4622 26.1635C20.9664 25.3629 20.879 23.3385 19.5528 22.2686C18.5567 21.4649 17.1554 21.4866 15.9392 21.8853C15.1638 22.1395 14.2767 22.2882 13.2662 22.2882C9.79632 22.2882 6.8456 19.9302 5.75491 16.6552C5.73401 16.5924 5.67293 16.5515 5.60702 16.5573C5.57912 16.5598 5.55258 16.5705 5.53077 16.5881L1.52199 19.8191C1.48773 19.8467 1.46194 19.8834 1.44758 19.925C1.42736 19.9835 1.43112 20.0478 1.45845 20.1034C3.65511 24.5691 8.11145 27.63 13.2662 27.63Z" fill="#34A853"/>
<path d="M5.71868 16.5473C5.43864 15.6877 5.27658 14.7667 5.27658 13.815C5.27658 12.881 5.43266 11.9767 5.68922 11.1309C5.69889 11.099 5.70326 11.0657 5.70191 11.0324C5.69849 10.948 5.65889 10.8692 5.59322 10.8161L1.62713 7.60831C1.58046 7.57057 1.5161 7.56346 1.46232 7.5901C1.4316 7.60532 1.40684 7.63034 1.39211 7.6613C0.507155 9.52199 0 11.6082 0 13.815C0 14.1126 0.00922317 14.408 0.0273523 14.701C0.201745 17.5191 3.5204 18.3192 5.71868 16.5473Z" fill="#FBBC05"/>
<path d="M13.2662 5.34175C14.4145 5.34175 15.3906 5.5799 16.203 5.92837C17.5517 6.50691 19.2279 6.55213 20.257 5.50572C21.294 4.45119 21.286 2.72231 20.0374 1.92947C18.1105 0.705868 15.8406 0 13.2662 0C8.75325 0 4.77562 2.34612 2.38102 5.92703C1.74789 6.87382 2.04229 8.12008 2.92784 8.83635C4.26611 9.91879 6.31766 9.28747 7.46206 8.00178C8.91814 6.36594 10.9794 5.34175 13.2662 5.34175Z" fill="#EB4335"/>
</svg>
