<svg width="35" height="25" viewBox="0 0 35 25" fill="none" xmlns="http://www.w3.org/2000/svg">
<path d="M26.1932 7.88902C26.249 7.95425 26.3156 8.00614 26.389 8.0417C26.4625 8.07725 26.5413 8.09575 26.6211 8.09613C26.78 8.09354 26.9316 8.01909 27.0428 7.88902L27.1151 7.80617L27.8623 8.66914L28.7119 9.64258L29.5374 10.5884L29.4711 10.6643C29.4147 10.7285 29.3698 10.8049 29.3392 10.889C29.3086 10.9731 29.2929 11.0634 29.2929 11.1545C29.2929 11.2456 29.3086 11.3359 29.3392 11.42C29.3698 11.5041 29.4147 11.5805 29.4711 11.6447L31.1342 13.5501C31.2471 13.6787 31.3998 13.7509 31.559 13.7509C31.7182 13.7509 31.8709 13.6787 31.9838 13.5501L34.8218 10.3053C34.8783 10.2412 34.9231 10.1648 34.9537 10.0807C34.9843 9.99655 35 9.90631 35 9.81517C35 9.72404 34.9843 9.6338 34.9537 9.54967C34.9231 9.46554 34.8783 9.38918 34.8218 9.325L33.1588 7.41956C33.1027 7.35485 33.0361 7.30349 32.9627 7.26844C32.8892 7.23339 32.8105 7.21534 32.7309 7.21534C32.6514 7.21534 32.5726 7.23339 32.4992 7.26844C32.4258 7.30349 32.3591 7.35485 32.3031 7.41956L32.2368 7.5024L29.8266 4.74089L29.8989 4.66494C29.9554 4.60077 30.0002 4.52441 30.0308 4.44028C30.0614 4.35615 30.0772 4.26591 30.0772 4.17478C30.0772 4.08364 30.0614 3.9934 30.0308 3.90927C30.0002 3.82514 29.9554 3.74879 29.8989 3.68461L28.2178 1.75845C28.1615 1.69446 28.0947 1.64384 28.0213 1.60949C27.9479 1.57513 27.8693 1.55771 27.79 1.55824C27.6305 1.56078 27.4777 1.63229 27.3622 1.75845L24.5302 5.01013C24.418 5.13949 24.355 5.31446 24.355 5.49685C24.355 5.67924 24.418 5.85422 24.5302 5.98357L26.1932 7.88902Z" fill="white"/>
<path d="M20.1497 18.1965C19.8558 18.0133 19.5263 17.9183 19.1917 17.9203C18.7865 17.9203 18.3904 18.058 18.0535 18.3159C17.7166 18.5738 17.5228 18.9261 17.3216 19.2451C17.143 19.6347 16.6073 20.4624 16.4287 20.8034C16.5078 21.2588 17.4565 21.5991 17.7431 21.9274C18.0296 22.2557 18.3946 22.4792 18.792 22.5698C19.1894 22.6604 19.6013 22.6139 19.9757 22.4362C20.35 22.2586 20.67 21.9577 20.8951 21.5717C21.1202 21.1857 21.2404 20.7319 21.2404 20.2676C21.243 19.8842 21.16 19.5063 20.9993 19.1699C20.8086 18.7544 20.5124 18.415 20.1497 18.1965Z" fill="white"/>
<path d="M17.3472 0.234945C17.6123 0.097516 17.8996 0.018526 18.1927 0.00221874C18.2686 -0.00200605 18.3446 0.000371737 18.4204 0.00459653H31.7686C32.1836 0.00425654 32.5903 0.129957 32.9433 0.367804C33.2964 0.605651 33.5816 0.946156 33.7671 1.35102C33.9525 1.75589 34.0309 2.20926 33.9933 2.65999C33.9557 3.11073 33.8037 3.54095 33.5544 3.90269L31 7L25.8788 5.62542H18.4204C17.8284 5.65836 17.2487 5.4334 16.8087 5.00007C16.3688 4.56673 16.1046 3.20678 16.0744 2.56102C16.0442 1.91525 16.2505 1.28315 16.6477 0.803237C16.8444 0.565609 17.0821 0.372374 17.3472 0.234945Z" fill="white"/>
<path d="M16.2085 21.7002C16.2447 21.2509 16.2501 21.193 16.4287 20.8034L24.0931 18.6383H31.7753C32.3673 18.6383 32.9351 18.8947 33.3537 19.3514C33.7723 19.808 34.0075 21.2678 34.0075 21.9136C34.0075 22.5593 33.7723 23.1785 33.3537 23.6351C32.9351 24.0917 32.3673 24.3484 31.7753 24.3484H18.4271L18.4219 24.3484C18.0119 24.3474 17.795 24.3469 17.2572 23.9837C16.9057 23.7464 16.6215 23.4073 16.4364 23.0041C16.2512 22.6009 16.2085 21.7002 16.2085 21.7002Z" fill="white"/>
<path fill-rule="evenodd" clip-rule="evenodd" d="M2.20546 0.350791C1.9132 0.356181 1.62477 0.424323 1.35666 0.551324C1.08854 0.678326 0.845986 0.861701 0.64285 1.09097C0.439713 1.32024 0.279973 1.59092 0.172753 1.88755C0.0655332 2.18417 0.012934 2.50093 0.0179599 2.81974V21.9553C-0.0398909 22.449 0.0427901 22.9502 0.254802 23.391C0.466814 23.8317 0.797909 24.1907 1.20323 24.4194C1.26855 24.4579 1.3356 24.4928 1.40412 24.5241C1.40561 24.5241 1.4071 24.5241 1.40859 24.5241C1.47734 24.553 1.54736 24.5782 1.61841 24.5995C1.66124 24.6123 1.70441 24.6237 1.74787 24.6336C1.79003 24.6439 1.83246 24.6528 1.8751 24.6604C1.94901 24.6742 2.02351 24.684 2.09832 24.6896C2.18224 24.6965 2.26646 24.6981 2.35055 24.6945H6.70993C6.84839 24.6956 6.98664 24.6825 7.12287 24.6555C13.0626 24.2562 17.8706 19.0213 17.8706 12.5543C17.8706 6.10436 13.0939 0.89133 7.17868 0.46036C7.03599 0.430364 6.89095 0.415685 6.74564 0.416532H2.74787C2.57023 0.370427 2.38805 0.348348 2.20546 0.350791ZM5.53572 6.62282L6.39519 6.62282C10.3684 6.62282 12.1429 8.52461 12.1429 12.5519C12.1429 16.5791 10.3662 18.6997 6.39519 18.6997L5.53572 18.6997V6.62282Z" fill="white"/>
</svg>
