<svg width="317" height="50" viewBox="0 0 317 50" fill="none" xmlns="http://www.w3.org/2000/svg">
<path d="M75.2135 31.9714C74.2992 31.9714 73.5255 31.6725 72.8926 31.0747C72.2948 30.4769 71.9959 29.7209 71.9959 28.8066C71.9959 27.8923 72.2948 27.1538 72.8926 26.5912C73.5255 25.9934 74.2992 25.6945 75.2135 25.6945H84.3915C85.3058 25.6945 86.0618 26.011 86.6596 26.644C87.2926 27.2418 87.6091 27.9978 87.6091 28.9121C87.6091 29.7912 87.2926 30.5297 86.6596 31.1275C86.0618 31.6901 85.3058 31.9714 84.3915 31.9714H75.2135ZM96.4961 8.02417C96.9885 8.02417 97.4983 8.16483 98.0258 8.44615C98.5885 8.69231 99.0104 9.02637 99.2918 9.44835L112.109 29.1758L109.472 29.0703L122.606 9.44835C123.274 8.4989 124.136 8.02417 125.191 8.02417C126.035 8.02417 126.791 8.32307 127.459 8.92088C128.127 9.51868 128.461 10.2923 128.461 11.2418V41.7824C128.461 42.6967 128.162 43.4703 127.564 44.1033C126.966 44.7011 126.175 45 125.191 45C124.206 45 123.397 44.7011 122.764 44.1033C122.166 43.4703 121.868 42.6967 121.868 41.7824V16.9385L123.925 17.4132L113.164 33.8176C112.848 34.2044 112.443 34.5385 111.951 34.8198C111.494 35.1011 111.019 35.2242 110.527 35.189C110.07 35.2242 109.595 35.1011 109.103 34.8198C108.646 34.5385 108.259 34.2044 107.942 33.8176L97.8676 17.8879L99.239 15.0923V41.7824C99.239 42.6967 98.9577 43.4703 98.395 44.1033C97.8324 44.7011 97.0939 45 96.1797 45C95.3005 45 94.5797 44.7011 94.017 44.1033C93.4544 43.4703 93.1731 42.6967 93.1731 41.7824V11.2418C93.1731 10.3626 93.4896 9.60659 94.1225 8.97362C94.7907 8.34066 95.5819 8.02417 96.4961 8.02417ZM162.184 30.9165C162.184 33.8 161.534 36.3495 160.233 38.5648C158.967 40.7451 157.244 42.4505 155.063 43.6813C152.918 44.9121 150.509 45.5275 147.837 45.5275C145.164 45.5275 142.738 44.9121 140.558 43.6813C138.413 42.4505 136.69 40.7451 135.389 38.5648C134.123 36.3495 133.49 33.8 133.49 30.9165C133.49 28.033 134.123 25.5011 135.389 23.3209C136.69 21.1055 138.413 19.3824 140.558 18.1516C142.738 16.8857 145.164 16.2527 147.837 16.2527C150.509 16.2527 152.918 16.8857 155.063 18.1516C157.244 19.3824 158.967 21.1055 160.233 23.3209C161.534 25.5011 162.184 28.033 162.184 30.9165ZM155.855 30.9165C155.855 29.1231 155.485 27.5758 154.747 26.2747C154.044 24.9385 153.077 23.9011 151.846 23.1626C150.65 22.4242 149.314 22.0549 147.837 22.0549C146.36 22.0549 145.006 22.4242 143.775 23.1626C142.58 23.9011 141.613 24.9385 140.874 26.2747C140.171 27.5758 139.819 29.1231 139.819 30.9165C139.819 32.6747 140.171 34.222 140.874 35.5582C141.613 36.8593 142.58 37.8791 143.775 38.6176C145.006 39.356 146.36 39.7253 147.837 39.7253C149.314 39.7253 150.65 39.356 151.846 38.6176C153.077 37.8791 154.044 36.8593 154.747 35.5582C155.485 34.222 155.855 32.6747 155.855 30.9165ZM187.61 16.7802C188.524 16.7802 189.28 17.0967 189.878 17.7297C190.476 18.3275 190.774 19.0835 190.774 19.9978V33.3956C190.774 37.1231 189.737 40.0769 187.662 42.2571C185.588 44.4374 182.599 45.5275 178.695 45.5275C174.792 45.5275 171.803 44.4374 169.728 42.2571C167.689 40.0769 166.669 37.1231 166.669 33.3956V19.9978C166.669 19.0835 166.968 18.3275 167.566 17.7297C168.163 17.0967 168.92 16.7802 169.834 16.7802C170.748 16.7802 171.504 17.0967 172.102 17.7297C172.7 18.3275 172.999 19.0835 172.999 19.9978V33.3956C172.999 35.5407 173.473 37.1407 174.423 38.1956C175.372 39.2154 176.796 39.7253 178.695 39.7253C180.629 39.7253 182.071 39.2154 183.021 38.1956C183.97 37.1407 184.445 35.5407 184.445 33.3956V19.9978C184.445 19.0835 184.744 18.3275 185.341 17.7297C185.939 17.0967 186.695 16.7802 187.61 16.7802ZM211.394 16.2527C213.926 16.2527 215.842 16.7978 217.144 17.8879C218.48 18.978 219.394 20.4374 219.886 22.2659C220.379 24.0593 220.625 26.0637 220.625 28.2791V41.7824C220.625 42.6967 220.326 43.4703 219.728 44.1033C219.13 44.7011 218.374 45 217.46 45C216.546 45 215.79 44.7011 215.192 44.1033C214.594 43.4703 214.295 42.6967 214.295 41.7824V28.2791C214.295 27.1187 214.155 26.0813 213.873 25.167C213.592 24.2176 213.082 23.4615 212.344 22.8989C211.605 22.3363 210.55 22.0549 209.179 22.0549C207.842 22.0549 206.7 22.3363 205.75 22.8989C204.801 23.4615 204.08 24.2176 203.587 25.167C203.13 26.0813 202.902 27.1187 202.902 28.2791V41.7824C202.902 42.6967 202.603 43.4703 202.005 44.1033C201.407 44.7011 200.651 45 199.737 45C198.823 45 198.067 44.7011 197.469 44.1033C196.871 43.4703 196.572 42.6967 196.572 41.7824V9.18461C196.572 8.27033 196.871 7.51428 197.469 6.91648C198.067 6.28351 198.823 5.96703 199.737 5.96703C200.651 5.96703 201.407 6.28351 202.005 6.91648C202.603 7.51428 202.902 8.27033 202.902 9.18461V22.2659L202.111 22.1077C202.427 21.5099 202.867 20.8769 203.429 20.2088C203.992 19.5055 204.678 18.8549 205.486 18.2571C206.295 17.6593 207.192 17.1846 208.177 16.833C209.161 16.4462 210.234 16.2527 211.394 16.2527ZM249.527 16.2527C250.441 16.2527 251.197 16.5516 251.795 17.1495C252.393 17.7473 252.692 18.5209 252.692 19.4703V41.7824C252.692 42.6967 252.393 43.4703 251.795 44.1033C251.197 44.7011 250.441 45 249.527 45C248.613 45 247.857 44.7011 247.259 44.1033C246.661 43.4703 246.362 42.6967 246.362 41.7824V39.1978L247.523 39.6725C247.523 40.1297 247.277 40.6923 246.784 41.3604C246.292 41.9934 245.624 42.6264 244.78 43.2593C243.936 43.8923 242.934 44.4374 241.773 44.8945C240.648 45.3165 239.417 45.5275 238.081 45.5275C235.655 45.5275 233.457 44.9121 231.488 43.6813C229.518 42.4154 227.953 40.6923 226.793 38.5121C225.668 36.2967 225.105 33.7648 225.105 30.9165C225.105 28.033 225.668 25.5011 226.793 23.3209C227.953 21.1055 229.501 19.3824 231.435 18.1516C233.369 16.8857 235.514 16.2527 237.87 16.2527C239.382 16.2527 240.771 16.4813 242.037 16.9385C243.303 17.3956 244.393 17.9758 245.307 18.6791C246.257 19.3824 246.978 20.1033 247.47 20.8418C247.997 21.5451 248.261 22.1429 248.261 22.6352L246.362 23.3209V19.4703C246.362 18.556 246.661 17.8 247.259 17.2022C247.857 16.5692 248.613 16.2527 249.527 16.2527ZM238.872 39.7253C240.419 39.7253 241.773 39.3385 242.934 38.5648C244.094 37.7912 244.991 36.7363 245.624 35.4C246.292 34.0637 246.626 32.5692 246.626 30.9165C246.626 29.2286 246.292 27.7165 245.624 26.3802C244.991 25.044 244.094 23.989 242.934 23.2154C241.773 22.4418 240.419 22.0549 238.872 22.0549C237.36 22.0549 236.024 22.4418 234.863 23.2154C233.703 23.989 232.789 25.044 232.12 26.3802C231.488 27.7165 231.171 29.2286 231.171 30.9165C231.171 32.5692 231.488 34.0637 232.12 35.4C232.789 36.7363 233.703 37.7912 234.863 38.5648C236.024 39.3385 237.36 39.7253 238.872 39.7253ZM273.312 16.2527C276.126 16.2527 278.2 16.9385 279.537 18.3099C280.873 19.6462 281.752 21.3868 282.174 23.5319L281.277 23.0571L281.699 22.2132C282.121 21.4044 282.772 20.5429 283.651 19.6286C284.53 18.6791 285.585 17.8879 286.816 17.2549C288.082 16.5868 289.488 16.2527 291.035 16.2527C293.567 16.2527 295.484 16.7978 296.785 17.8879C298.121 18.978 299.035 20.4374 299.528 22.2659C300.02 24.0593 300.266 26.0637 300.266 28.2791V41.7824C300.266 42.6967 299.967 43.4703 299.37 44.1033C298.772 44.7011 298.016 45 297.101 45C296.187 45 295.431 44.7011 294.833 44.1033C294.235 43.4703 293.937 42.6967 293.937 41.7824V28.2791C293.937 27.1187 293.796 26.0813 293.515 25.167C293.233 24.2176 292.723 23.4615 291.985 22.8989C291.246 22.3363 290.191 22.0549 288.82 22.0549C287.484 22.0549 286.341 22.3363 285.391 22.8989C284.442 23.4615 283.721 24.2176 283.229 25.167C282.772 26.0813 282.543 27.1187 282.543 28.2791V41.7824C282.543 42.6967 282.244 43.4703 281.646 44.1033C281.049 44.7011 280.293 45 279.378 45C278.464 45 277.708 44.7011 277.11 44.1033C276.512 43.4703 276.213 42.6967 276.213 41.7824V28.2791C276.213 27.1187 276.073 26.0813 275.791 25.167C275.51 24.2176 275 23.4615 274.262 22.8989C273.523 22.3363 272.468 22.0549 271.097 22.0549C269.761 22.0549 268.618 22.3363 267.668 22.8989C266.719 23.4615 265.998 24.2176 265.506 25.167C265.049 26.0813 264.82 27.1187 264.82 28.2791V41.7824C264.82 42.6967 264.521 43.4703 263.923 44.1033C263.326 44.7011 262.57 45 261.655 45C260.741 45 259.985 44.7011 259.387 44.1033C258.789 43.4703 258.49 42.6967 258.49 41.7824V19.9978C258.49 19.0835 258.789 18.3275 259.387 17.7297C259.985 17.0967 260.741 16.7802 261.655 16.7802C262.57 16.7802 263.326 17.0967 263.923 17.7297C264.521 18.3275 264.82 19.0835 264.82 19.9978V22.2659L264.029 22.1077C264.345 21.5099 264.785 20.8769 265.348 20.2088C265.91 19.5055 266.596 18.8549 267.405 18.2571C268.213 17.6593 269.11 17.1846 270.095 16.833C271.079 16.4462 272.152 16.2527 273.312 16.2527ZM312.022 41.7824C312.022 42.6967 311.723 43.4703 311.126 44.1033C310.528 44.7011 309.772 45 308.857 45C307.943 45 307.187 44.7011 306.589 44.1033C305.991 43.4703 305.693 42.6967 305.693 41.7824V19.9978C305.693 19.0835 305.991 18.3275 306.589 17.7297C307.187 17.0967 307.943 16.7802 308.857 16.7802C309.772 16.7802 310.528 17.0967 311.126 17.7297C311.723 18.3275 312.022 19.0835 312.022 19.9978V41.7824ZM308.805 13.3516C307.609 13.3516 306.765 13.1582 306.273 12.7714C305.78 12.3846 305.534 11.6989 305.534 10.7143V9.71209C305.534 8.69231 305.798 8.00659 306.326 7.65494C306.888 7.26813 307.732 7.07472 308.857 7.07472C310.088 7.07472 310.95 7.26813 311.442 7.65494C311.934 8.04176 312.18 8.72747 312.18 9.71209V10.7143C312.18 11.7341 311.917 12.4374 311.389 12.8242C310.862 13.1758 310 13.3516 308.805 13.3516Z" fill="#25323B"/>
<path d="M30.7179 2.41603C31.1873 2.17268 31.696 2.0328 32.2151 2.00393C32.3494 1.99645 32.4839 2.00066 32.6182 2.00814H56.2544C56.9891 2.00754 57.7094 2.23012 58.3345 2.65128C58.9596 3.07245 59.4647 3.67539 59.7931 4.3923C60.1215 5.10921 60.2602 5.91201 60.1937 6.71015C60.1272 7.50828 59.858 8.27009 59.4165 8.91063L54.8934 14.3952L45.8251 11.9611H32.6182C31.57 12.0195 30.5434 11.6211 29.7643 10.8538C28.9853 10.0865 28.5176 7.67837 28.4641 6.53489C28.4107 5.39141 28.7758 4.27212 29.4793 3.42232C29.8276 3.00154 30.2484 2.65938 30.7179 2.41603Z" fill="#41B3FF"/>
<path d="M28.7016 40.4253C28.7657 39.6298 28.7752 39.5272 29.0914 38.8373L42.6631 35.0036H56.2663C57.3146 35.0036 58.3199 35.4576 59.0611 36.2662C59.8024 37.0747 60.2188 39.6597 60.2188 40.8031C60.2188 41.9466 59.8024 43.0429 59.0611 43.8515C58.3199 44.6601 57.3146 45.1146 56.2663 45.1146H32.6301L32.6208 45.1146C31.8948 45.1128 31.5107 45.1119 30.5585 44.4689C29.9361 44.0486 29.4329 43.4481 29.105 42.7342C28.7772 42.0202 28.7016 40.4253 28.7016 40.4253Z" fill="#41B3FF"/>
<path fill-rule="evenodd" clip-rule="evenodd" d="M3.90529 2.62097C3.38777 2.63051 2.87704 2.75117 2.40228 2.97606C1.92752 3.20095 1.49802 3.52565 1.13832 3.93164C0.778616 4.33762 0.495759 4.81692 0.3059 5.34216C0.116042 5.86741 0.0229026 6.4283 0.0318022 6.99282V40.8768C-0.0706363 41.7511 0.07577 42.6386 0.451187 43.419C0.826605 44.1995 1.41289 44.8352 2.1306 45.2401C2.24627 45.3083 2.36499 45.3702 2.48633 45.4254C2.48896 45.4255 2.4916 45.4255 2.49423 45.4254C2.61598 45.4767 2.73997 45.5213 2.86577 45.5591C2.94162 45.5817 3.01807 45.6018 3.09502 45.6195C3.16968 45.6377 3.24481 45.6535 3.32031 45.6669C3.45118 45.6914 3.5831 45.7087 3.71557 45.7186C3.86418 45.7307 4.0133 45.7336 4.1622 45.7273H11.8815C12.1267 45.7291 12.3715 45.706 12.6127 45.6583C23.1304 44.9512 31.6442 35.6815 31.6442 24.2302C31.6442 12.809 23.1858 3.57812 12.7115 2.81499C12.4589 2.76187 12.2021 2.73588 11.9448 2.73738H4.86576C4.55119 2.65574 4.22861 2.61664 3.90529 2.62097ZM9.80229 13.7271L11.3242 13.7271C18.3597 13.7271 21.5018 17.0946 21.5018 24.2258C21.5018 31.3571 18.3558 35.1121 11.3242 35.1121H9.80229V13.7271Z" fill="#41B3FF"/>
<path d="M45.9962 16.5313C46.1087 16.6628 46.2428 16.7674 46.3908 16.839C46.5389 16.9107 46.6978 16.948 46.8585 16.9488C47.1789 16.9435 47.4844 16.7935 47.7087 16.5313L47.8544 16.3643L49.3604 18.1037L51.0728 20.0658L52.7367 21.9722L52.6031 22.1252C52.4893 22.2546 52.3989 22.4085 52.3373 22.5781C52.2756 22.7476 52.2439 22.9295 52.2439 23.1132C52.2439 23.2969 52.2756 23.4788 52.3373 23.6483C52.3989 23.8179 52.4893 23.9718 52.6031 24.1012L55.9551 27.9418C56.1827 28.201 56.4905 28.3464 56.8113 28.3464C57.1322 28.3464 57.44 28.201 57.6676 27.9418L63.3879 21.4016C63.5017 21.2723 63.5921 21.1184 63.6537 20.9488C63.7154 20.7792 63.7471 20.5973 63.7471 20.4136C63.7471 20.2299 63.7154 20.0481 63.6537 19.8785C63.5921 19.7089 63.5017 19.555 63.3879 19.4257L60.0359 15.5851C59.9229 15.4546 59.7886 15.3511 59.6406 15.2805C59.4926 15.2098 59.3339 15.1734 59.1736 15.1734C59.0132 15.1734 58.8545 15.2098 58.7065 15.2805C58.5585 15.3511 58.4242 15.4546 58.3113 15.5851L58.1777 15.752L53.3197 10.1859L53.4654 10.0329C53.5792 9.90352 53.6696 9.74961 53.7312 9.58004C53.7929 9.41047 53.8246 9.22859 53.8246 9.0449C53.8246 8.8612 53.7929 8.67932 53.7312 8.50975C53.6696 8.34018 53.5792 8.18627 53.4654 8.05691L50.0769 4.17456C49.9635 4.04559 49.8289 3.94356 49.6809 3.87431C49.5329 3.80506 49.3745 3.76996 49.2146 3.77102C48.8931 3.77615 48.5851 3.92028 48.3523 4.17456L42.6442 10.7286C42.418 10.9894 42.291 11.342 42.291 11.7097C42.291 12.0773 42.418 12.43 42.6442 12.6907L45.9962 16.5313Z" fill="#25323B"/>
<rect x="48.8652" y="16.4478" width="3.57618" height="23.4091" transform="rotate(41.0796 48.8652 16.4478)" fill="#25323B"/>
<path d="M35.6827 34.221C35.1623 33.8966 34.5787 33.7283 33.9863 33.732C33.2688 33.732 32.5674 33.9758 31.9708 34.4325C31.3743 34.8892 31.031 35.513 30.6748 36.0779C30.3586 36.7677 29.41 38.2333 29.0938 38.8372C29.2337 39.6435 30.9138 40.2462 31.4211 40.8275C31.9284 41.4087 32.5748 41.8046 33.2785 41.965C33.9822 42.1254 34.7116 42.0431 35.3745 41.7285C36.0374 41.4139 36.6039 40.8811 37.0026 40.1976C37.4012 39.5141 37.6139 38.7105 37.6139 37.8884C37.6185 37.2094 37.4716 36.5404 37.1871 35.9447C36.8495 35.2089 36.3249 34.6079 35.6827 34.221Z" fill="#41B3FF"/>
</svg>
