<svg width="134" height="134" viewBox="0 0 134 134" fill="none" xmlns="http://www.w3.org/2000/svg">
<rect x="0.800781" y="0.172607" width="133.138" height="133.121" rx="10" fill="#E0E2E9"/>
<ellipse cx="67.9825" cy="66.7331" rx="57.4083" ry="56.8789" fill="white"/>
<path d="M90.8151 47.4631C89.6326 47.4631 88.6541 46.5045 88.6541 45.322C88.6541 41.78 85.746 38.8987 82.171 38.8987H47.5944C44.0194 38.8987 41.1113 41.78 41.1113 45.322V79.5796C41.1113 83.1217 44.0194 86.0029 47.5944 86.0029C48.7769 86.0029 49.7555 86.9616 49.7555 88.144C49.7555 91.6861 52.6636 94.5674 56.2386 94.5674H90.8151C94.3901 94.5674 97.2982 91.6861 97.2982 88.144V53.8864C97.2982 50.3444 94.3901 47.4631 90.8151 47.4631ZM47.5944 43.1809H82.171C83.3634 43.1809 84.332 44.1416 84.332 45.322V53.5797C84.332 56.0175 83.4415 58.3714 81.8278 60.1988L77.6407 64.9405C74.035 69.0239 67.8243 69.47 63.6719 65.9439L57.6441 60.8251C56.7872 60.0965 55.5083 60.1444 54.7107 60.9368C51.2733 64.3425 45.4334 61.9077 45.4334 57.0688V45.322C45.4334 44.1416 46.402 43.1809 47.5944 43.1809ZM92.9761 88.144C92.9761 89.3244 92.0076 90.2851 90.8151 90.2851H56.2386C55.0461 90.2851 54.0775 89.3244 54.0775 88.144C54.0775 86.9616 55.0361 86.0029 56.2186 86.0029H82.171C85.746 86.0029 88.6541 83.1217 88.6541 79.5796V53.9063C88.6541 52.7128 89.6216 51.7453 90.8151 51.7453C92.0076 51.7453 92.9761 52.706 92.9761 53.8864V88.144Z" fill="#E0E2E9"/>
<path d="M69.2038 60.3098C72.7788 60.3098 75.6869 57.4285 75.6869 53.8864C75.6869 50.3444 72.7788 47.4631 69.2038 47.4631C65.6288 47.4631 62.7207 50.3444 62.7207 53.8864C62.7207 57.4285 65.6288 60.3098 69.2038 60.3098Z" fill="#E0E2E9"/>
</svg>
