<svg width="20" height="21" viewBox="0 0 20 21" fill="none" xmlns="http://www.w3.org/2000/svg">
<path d="M19.4162 17.6033L15.0225 12.9898C15.7875 11.6891 16.25 10.1719 16.25 8.53125C16.25 3.81938 12.6125 0 8.125 0C3.6375 0 0 3.81938 0 8.53125C0 13.2431 3.6375 17.0625 8.125 17.0625C9.6875 17.0625 11.1325 16.5769 12.37 15.7749L16.765 20.3884C17.1187 20.7475 17.5926 20.9463 18.0846 20.9418C18.5766 20.9374 19.0472 20.7302 19.3951 20.3648C19.7429 19.9994 19.94 19.5052 19.944 18.9886C19.948 18.472 19.7584 17.9745 19.4162 17.6033ZM8.125 14.4375C5.01875 14.4375 2.5 11.7928 2.5 8.53125C2.5 5.26969 5.01875 2.625 8.125 2.625C11.2312 2.625 13.75 5.26969 13.75 8.53125C13.75 11.7928 11.2312 14.4375 8.125 14.4375Z" fill="white"/>
</svg>
